<svg width="70" height="25" fill="none" xmlns="http://www.w3.org/2000/svg"><path d="M29.632 17V9.048h.028L31.718 17h1.456l2.058-7.952h.028V17h1.652V6.892H34.21l-1.75 6.636h-.028l-1.75-6.636H27.98V17h1.652zm9.329-7.616V17h1.764V9.384H38.96zm1.764-1.316V6.472H38.96v1.596h1.764zm1.348-1.176V8.6h2.254V17h1.932V8.6h2.254V6.892h-6.44zm10.35 2.492v5.754c-.378.336-.784.686-1.148.686-.476 0-.644-.336-.644-.84v-5.6h-1.764v5.796c0 1.414.56 1.96 1.638 1.96.728 0 1.33-.448 1.974-1.008V17h1.708V9.384h-1.764zm5.208 1.722c.35-.378.672-.546 1.064-.546.476 0 .868.308.868 1.82v1.624c0 1.512-.392 1.82-.868 1.82-.392 0-.714-.168-1.064-.546v-4.172zM57.491 17v-.924h.028c.308.476 1.092 1.064 1.876 1.064 1.372 0 1.932-1.064 1.932-3.024v-1.848c0-1.96-.56-3.024-1.932-3.024-.476 0-.924.224-1.764.84V6.892h-1.764V17h1.624zm10.836-3.388v-1.778c0-1.554-1.162-2.59-2.8-2.59-1.68 0-2.8 1.036-2.8 2.702v2.492c0 1.666 1.12 2.702 2.8 2.702 1.778 0 2.716-.924 2.8-2.492h-1.764c0 .588-.294 1.064-1.036 1.064-.588 0-1.036-.336-1.036-1.092v-1.008h3.836zm-3.836-1.428v-.42c0-.672.322-1.092 1.036-1.092s1.036.42 1.036 1.092v.42h-2.072z" fill="#E0E0E0"/><g clip-path="url(#clip0)"><path d="M24.485 6.499a3.132 3.132 0 00-2.203-2.204C20.325 3.76 12.5 3.76 12.5 3.76s-7.825 0-9.782.515A3.196 3.196 0 00.515 6.499C0 8.455 0 12.512 0 12.512s0 4.077.515 6.013a3.133 3.133 0 002.203 2.204c1.977.535 9.782.535 9.782.535s7.825 0 9.782-.515a3.132 3.132 0 002.203-2.203C25 16.588 25 12.532 25 12.532s.02-4.077-.515-6.033z" fill="red"/><path d="M10.008 16.26l6.508-3.748-6.508-3.748v7.496z" fill="#fff"/></g><defs><clipPath id="clip0"><path fill="#fff" d="M0 0h25v25H0z"/></clipPath></defs></svg>